<?xml version="1.0" encoding="utf-8"?>
<!-- Generator: Adobe Illustrator 19.1.0, SVG Export Plug-In . SVG Version: 6.00 Build 0)  -->
<svg version="1.1" id="Layer_1" xmlns="http://www.w3.org/2000/svg" xmlns:xlink="http://www.w3.org/1999/xlink" x="0px" y="0px"
	 viewBox="174 -112 511.9 511.9" style="enable-background:new 174 -112 511.9 511.9;" xml:space="preserve">
<style type="text/css">
	.st0{fill:#FFFFFF;}
</style>
<path class="st0" d="M294.8,277.1c0-24.3,12.4-45.9,37.3-64.9c24.8-19,54.8-28.5,90-28.5h22.6c-11.7-11.2-17.6-23.1-17.6-36
	c0-8.1,2.2-16.2,6.7-24.3c-2.8,0.3-6.8,0.4-12.1,0.4c-29,0-52.7-9.1-71.2-27.2s-27.6-40.5-27.6-67c0-25.4,11.4-47.6,34.3-66.6
	c22.9-19,49-28.5,78.3-28.5h129.8l-28.9,20.9h-41c13.1,5,23.4,14.5,30.8,28.5c7.4,13.9,11.1,29.4,11.1,46.5
	c0,26-12.3,48.6-36.8,67.8c-10.3,8.1-17,14.5-20.1,19.3c-3.1,4.7-4.6,10.6-4.6,17.6c0,5.3,3.8,12,11.3,20.1
	c7.5,8.1,15.1,14.9,22.6,20.5c17,12,28.8,24.3,35.4,36.8c6.6,12.6,9.8,28.3,9.8,47.3c0,25.1-11.4,47-34.3,65.5
	c-22.9,18.5-53.9,27.8-92.9,27.8c-37.1,0-68.5-7-94.2-20.9C307.6,318.4,294.8,300,294.8,277.1z M341.7,263.3
	c0,19.3,8.2,35.7,24.5,49.2c16.3,13.5,36.6,20.3,60.9,20.3c33.2,0,57.3-6.2,72.2-18.4c14.9-12.3,22.4-28.6,22.4-49
	c0-5.3-0.5-9.8-1.7-13.4c-0.8-3.1-1.8-5.9-2.9-8.6s-2.8-5.3-5-8c-2.2-2.6-4.2-4.9-5.9-6.7c-1.7-1.8-4.4-4.1-8.2-6.9
	c-3.8-2.8-6.6-4.9-8.6-6.3c-2-1.4-5.4-3.9-10.5-7.3c-5-3.5-8.7-5.9-10.9-7.3c-10.9-3.3-21.6-5-32.2-5h-1.7c-24.3,0-45.6,6.6-64,19.7
	C351.2,229,341.7,244.9,341.7,263.3z M369.3,29.3c3.1,22.1,11.5,41,25.3,56.9s29.1,24,45.8,24.3h1.7c15.6,0,28.2-7.2,37.7-21.8
	c7.5-11.7,11.3-25.5,11.3-41.4c0-4.5-0.3-9.2-0.8-14.2C487.5,11,479.2-7.7,465.4-23c-13.8-15.4-29.1-23.3-45.8-23.9h-1.7
	c-15.9,0-28.6,7.1-38.1,21.3c-7.5,11.4-11.3,25.1-11.3,41C368.5,20,368.8,24.6,369.3,29.3z"/>
</svg>
