<?xml version="1.0" encoding="utf-8"?>
<!-- Generator: Adobe Illustrator 19.1.0, SVG Export Plug-In . SVG Version: 6.00 Build 0)  -->
<svg version="1.1" id="Layer_1" xmlns="http://www.w3.org/2000/svg" xmlns:xlink="http://www.w3.org/1999/xlink" x="0px" y="0px"
	 viewBox="123.7 -111.7 511.9 511.9" style="enable-background:new 123.7 -111.7 511.9 511.9;" xml:space="preserve">
<style type="text/css">
	.st0{fill:#FFFFFF;}
</style>
<g id="Solid">
</g>
<g id="Colours">
</g>
<g id="Vertical">
</g>
<g id="Horizontal">
</g>
<g id="Lines">
</g>
<g id="Graphics">
</g>
<g id="Content">
	<g>
		<path class="st0" d="M534.1,49.6c0,4.8,1.6,8.1,1.6,13c0,73.1-48.8,195-164.1,222.7c-22.8,6.5-45.5,8.1-68.3,8.1
			c-37.4,0-84.5-6.5-118.7-35.8c45.5,6.5,86.2-9.8,118.7-34.1c-14.6,0-53.6-1.6-76.4-55.2c6.5,1.6,26,0,35.8-1.6
			c-58.5-19.5-61.7-68.3-61.7-82.9c8.1,4.8,24.4,11.3,35.8,11.3c-47.1-40.6-39-78-26-110.5C274.1,56.1,339.1,69,376.5,69
			c-6.5-47.1,13-84.5,60.1-97.5c27.7-8.1,55.2,1.6,74.8,22.8c8.1,0,26-3.3,52-19.5c-3.3,11.3-14.6,35.8-35.8,45.5l14.6-1.6
			c8.1-1.6,21.1-6.5,32.5-11.3C569.8,17.2,555.2,36.6,534.1,49.6z"/>
	</g>
	<g id="New_Symbol_7">
	</g>
</g>
</svg>
