<?xml version="1.0" encoding="utf-8"?>
<!-- Generator: Adobe Illustrator 19.1.0, SVG Export Plug-In . SVG Version: 6.00 Build 0)  -->
<svg version="1.1" id="Layer_1" xmlns="http://www.w3.org/2000/svg" xmlns:xlink="http://www.w3.org/1999/xlink" x="0px" y="0px"
	 viewBox="391.5 -112 511.9 511.9" style="enable-background:new 391.5 -112 511.9 511.9;" xml:space="preserve">
<style type="text/css">
	.st0{fill:#FFFFFF;}
</style>
<path class="st0" d="M478,248.8c0-14.9,0.8-37.2,2.5-67c1.1-14.6,6.3-26.5,15.7-35.8c9.4-9.2,21.4-14.3,36-15.1
	c27.6-1.4,69-2.1,124.4-2.1s96.9,0.7,124.4,2.1c14.6,0.8,26.6,5.9,36,15.1c9.4,9.2,14.6,21.2,15.7,35.8c1.4,24.8,2.1,47.1,2.1,67
	c0,19.8-0.7,42.2-2.1,67c-1.1,14.6-6.3,26.5-15.7,35.8c-9.4,9.2-21.4,14.3-36,15.1c-27.6,1.4-69,2.1-124.4,2.1s-96.9-0.7-124.4-2.1
	c-14.6-0.8-26.6-5.9-36-15.1c-9.4-9.2-14.6-21.2-15.7-35.8C478.8,286,478,263.7,478,248.8z M505.7,190.5h25.2v134.8h24.4V190.5h25.2
	v-22.7h-74.8V190.5z M532.5-58.7h24.8l15.7,62.8h1.7l14.9-62.8h24.8l-19,61.2c-6.3,20.1-9.5,30.5-9.5,31v65.3h-24.4V36.3
	c-0.5-3.8-1.3-7.4-2.3-10.5s-2.2-6.8-3.7-11c-1.5-4.1-2.7-7.6-3.5-10.3L532.5-58.7z M580.5,307.1c0,13.2,5,19.8,14.9,19.8
	c8.8,0,17.2-4.8,25.2-14.5v12.8h21.5V209.1h-21.5v88.5c-5.8,5.8-10,8.7-12.8,8.7c-3.8,0-5.8-2.6-5.8-7.9v-89.3h-21.5V307.1z
	 M613.1,69.4V9.1c0-9.4,3-16.6,9.1-21.7c6.1-5.1,13.8-7.6,23.1-7.6c9.1,0,16.5,2.8,22.1,8.3S676,0.8,676,9.9v59.9
	c0,9.9-2.8,17.7-8.3,23.4c-5.5,5.7-13.2,8.5-23.1,8.5c-9.6,0-17.3-3-22.9-8.9C616,86.9,613.1,79,613.1,69.4z M635.5,72.3
	c0,6.3,3,9.5,9.1,9.5c6.3,0,9.5-3.4,9.5-10.3V8.2c0-2.5-1-4.5-2.9-6.2s-4.1-2.5-6.6-2.5c-2.5,0-4.6,0.7-6.4,2.3
	c-1.8,1.5-2.7,3.5-2.7,6V72.3z M663.2,325.3h21.9v-8.7c5.5,6.9,12.4,10.3,20.7,10.3c12.9,0,19.4-8.6,19.4-25.6v-64.5
	c0-19.6-7-29.3-21.1-29.3c-6.9,0-13.2,3.7-19,11.2v-50.8h-21.9V325.3z M685.1,303.4v-72.8c3-3,6.1-4.5,9.1-4.5
	c6.1,0,9.1,3.8,9.1,11.6v61.2c0,6.6-2.6,9.9-7.9,9.9C691.6,308.8,688.1,307,685.1,303.4z M694.6,80.6v-98h21.5v88.9
	c0,5.2,1.9,7.9,5.8,7.9c3.6,0,7.9-2.9,12.8-8.7v-88h21.5V98.8h-21.5V85.9c-8,9.6-16.4,14.5-25.2,14.5
	C699.5,100.4,694.6,93.8,694.6,80.6z M741.7,292.6c0,10.5,2.6,19.1,7.9,25.8c5.2,6.7,13.1,10.1,23.6,10.1c21.5,0,32.2-12,32.2-36
	V284H783c0,0.5,0.1,2.4,0.2,5.6c0.1,3.2,0.1,5.5-0.2,6.8s-0.6,3.2-1,5.6c-0.4,2.4-1.3,4-2.7,5c-1.4,1-3.3,1.4-5.8,1.4
	c-6.3,0-9.5-5.5-9.5-16.5v-21.9h41.3v-29.8c0-10.5-2.6-18.7-7.6-24.8c-5.1-6.1-12.9-9.1-23.4-9.1c-9.9,0-17.9,3.2-23.8,9.5
	s-8.9,14.5-8.9,24.4V292.6z M764,251.7v-12.4c0-8.6,3.2-12.8,9.5-12.8s9.5,4.3,9.5,12.8v12.4H764z"/>
</svg>
