<?xml version="1.0" encoding="utf-8"?>
<!-- Generator: Adobe Illustrator 18.1.1, SVG Export Plug-In . SVG Version: 6.00 Build 0)  -->
<!DOCTYPE svg PUBLIC "-//W3C//DTD SVG 1.1//EN" "http://www.w3.org/Graphics/SVG/1.1/DTD/svg11.dtd">
<svg version="1.1" id="Layer_1" xmlns="http://www.w3.org/2000/svg" xmlns:xlink="http://www.w3.org/1999/xlink" x="0px" y="0px"
	 viewBox="300 123.3 595.3 595.3" enable-background="new 300 123.3 595.3 595.3" xml:space="preserve">
<g id="Solid">
</g>
<g id="Colours">
</g>
<g id="Vertical">
</g>
<g id="Horizontal">
</g>
<g id="Lines">
</g>
<g id="Graphics">
</g>
<g id="Content">
	<g>
		<path fill="#FFFFFF" d="M880.4,123.3c7.4,0,14.9,7.4,14.9,14.9v565.5c0,7.4-7.4,14.9-14.9,14.9H314.9c-7.4,0-14.9-7.4-14.9-14.9
			V138.2c0-7.4,7.4-14.9,14.9-14.9H880.4z M443.9,329.2c29.8,0,49.6-19.8,49.6-44.6c0-24.8-17.4-44.6-47.1-44.6
			c-29.8,0-49.6,19.8-49.6,44.6C396.7,309.3,414.1,329.2,443.9,329.2L443.9,329.2z M486,363.9h-84.3v258h86.8v-258H486z
			 M798.5,475.5c0-79.4-42.2-116.6-99.2-116.6c-44.6,0-67,24.8-76.9,42.2v-37.2h-86.8c0,7.4,0,19.8,0,42.2c0,34.7,0,101.7,0,218.3
			h86.8V480.5c0-7.4,0-14.9,2.5-19.8c7.4-14.9,19.8-32.2,44.6-32.2c32.2,0,44.6,22.3,44.6,59.5v138.9H801V475.5H798.5z"/>
	</g>
	<g id="New_Symbol_7">
	</g>
</g>
</svg>
