<?xml version="1.0" encoding="utf-8"?>
<!-- Generator: Adobe Illustrator 18.1.1, SVG Export Plug-In . SVG Version: 6.00 Build 0)  -->
<!DOCTYPE svg PUBLIC "-//W3C//DTD SVG 1.1//EN" "http://www.w3.org/Graphics/SVG/1.1/DTD/svg11.dtd">
<svg version="1.1" id="Layer_1" xmlns="http://www.w3.org/2000/svg" xmlns:xlink="http://www.w3.org/1999/xlink" x="0px" y="0px"
	 viewBox="300 123.3 595.2 595.3" enable-background="new 300 123.3 595.2 595.3" xml:space="preserve">
<g id="Solid">
</g>
<g id="Colours">
</g>
<g id="Vertical">
</g>
<g id="Horizontal">
</g>
<g id="Lines">
</g>
<g id="Graphics">
</g>
<g id="Content">
	<g>
		<path fill="#FFFFFF" d="M300,420.9c0-163.7,133.9-297.6,297.6-297.6s297.6,133.9,297.6,297.6S761.3,718.6,597.6,718.6
			S300,584.6,300,420.9z M615,423.4c2.5-2.5,7.4-2.5,9.9-2.5l-19.8-42.2C476.1,416,357,416,344.6,416v5c0,64.5,24.8,124,64.5,168.7
			C414.1,582.2,483.5,465.6,615,423.4z M585.2,339.1c-42.2-74.4-86.8-136.4-94.3-146.3c-71.9,34.7-124,99.2-141.4,178.6
			C359.5,368.9,463.7,368.9,585.2,339.1z M642.3,463.1L642.3,463.1C496,515.2,446.4,614.4,441.4,621.8
			c44.6,34.7,96.7,54.6,156.3,54.6c34.7,0,67-7.4,99.2-19.8C694.4,634.3,679.5,554.9,642.3,463.1z M632.4,321.7
			c89.3-32.2,129-86.8,133.9-91.8c-44.6-39.7-104.2-64.5-168.7-64.5c-19.8,0-39.7,2.5-59.5,7.4C545.6,182.8,592.7,247.3,632.4,321.7
			z M652.2,361.4c5,12.4,12.4,24.8,17.4,37.2l5,12.4c84.3-9.9,168.7,7.4,176.1,7.4c0-59.5-22.3-114.1-57-158.7
			C788.6,267.2,746.5,324.2,652.2,361.4z M689.4,450.7c32.2,91.8,47.1,166.2,49.6,181.1c57-39.7,96.7-99.2,109.1-171.1
			C838.2,460.6,768.8,438.3,689.4,450.7z"/>
	</g>
	<g id="New_Symbol_7">
	</g>
</g>
</svg>
