<?xml version="1.0" encoding="utf-8"?>
<!-- Generator: Adobe Illustrator 18.1.1, SVG Export Plug-In . SVG Version: 6.00 Build 0)  -->
<!DOCTYPE svg PUBLIC "-//W3C//DTD SVG 1.1//EN" "http://www.w3.org/Graphics/SVG/1.1/DTD/svg11.dtd">
<svg version="1.1" id="Layer_1" xmlns="http://www.w3.org/2000/svg" xmlns:xlink="http://www.w3.org/1999/xlink" x="0px" y="0px"
	 viewBox="300 246.6 595.3 595.3" enable-background="new 300 246.6 595.3 595.3" xml:space="preserve">
<g id="Solid">
</g>
<g id="Colours">
</g>
<g id="Vertical">
</g>
<g id="Horizontal">
</g>
<g id="Lines">
</g>
<g id="Graphics">
</g>
<g id="Content">
	<g>
		<path fill="#FFFFFF" d="M895.3,827c0,7.4-7.4,14.9-14.9,14.9H314.9c-7.4,0-14.9-7.4-14.9-14.9c0-141.4,0-458.9,0-565.5
			c0-7.4,7.4-14.9,14.9-14.9h565.5c7.4,0,14.9,7.4,14.9,14.9L895.3,827L895.3,827z M714.2,772.4V561.6h76.9l2.5-74.4h-79.4v-54.6
			c0-19.8,5-32.2,32.2-32.2h47.1L796,331c-12.4-2.5-24.8-2.5-34.7-2.5c-5,0-12.4,0-17.4,0c-74.4-5-106.7,47.1-106.7,96.7v64.5h-54.6
			v74.4h54.6v210.8h76.9v-2.5H714.2z"/>
	</g>
	<g id="New_Symbol_7">
	</g>
</g>
</svg>
