<?xml version="1.0" encoding="utf-8"?>
<!-- Generator: Adobe Illustrator 18.1.1, SVG Export Plug-In . SVG Version: 6.00 Build 0)  -->
<!DOCTYPE svg PUBLIC "-//W3C//DTD SVG 1.1//EN" "http://www.w3.org/Graphics/SVG/1.1/DTD/svg11.dtd">
<svg version="1.1" id="Layer_1" xmlns="http://www.w3.org/2000/svg" xmlns:xlink="http://www.w3.org/1999/xlink" x="0px" y="0px"
	 viewBox="300 246.7 595.3 595.2" enable-background="new 300 246.7 595.3 595.2" xml:space="preserve">
<g id="Solid">
</g>
<g id="Colours">
</g>
<g id="Vertical">
</g>
<g id="Horizontal">
</g>
<g id="Lines">
</g>
<g id="Graphics">
</g>
<g id="Content">
	<g>
		<path fill="#FFFFFF" d="M895.3,544.2c0,163.7-133.9,297.6-297.6,297.6c-29.8,0-57-5-84.3-12.4c9.9-17.4,24.8-39.7,29.8-64.5
			l5-14.9c2.5-12.4,7.4-32.2,17.4-67c9.9,19.8,39.7,37.2,71.9,37.2c96.7,0,161.2-86.8,161.2-203.4c0-89.3-74.4-171.1-188.5-171.1
			c-141.4,0-213.3,101.7-213.3,186c0,52.1,19.8,96.7,62,114.1c7.4,2.5,12.4,0,14.9-7.4c2.5-5,5-17.4,5-24.8c2.5-7.4,2.5-9.9-5-17.4
			C461.4,581.3,454,564,454,536.7c0-74.4,57-141.4,146.3-141.4c79.4,0,124,49.6,124,114.1c0,86.8-37.2,158.7-94.3,158.7
			c-29.8,0-54.6-24.8-47.1-57c9.9-37.2,27.3-76.9,27.3-106.7c0-24.8-12.4-44.6-39.7-44.6c-32.2,0-57,32.2-57,76.9
			c0,5,0,9.9,2.5,17.4c2.5,9.9,2.5,19.8,7.4,29.8C506,653.3,498.6,693,491.2,717.8l-7.4,29.8c-5,22.3-5,47.1-5,67
			C374.4,770,300,665.8,300,544.2c0-163.7,133.9-297.6,297.6-297.6S895.3,380.6,895.3,544.2z"/>
	</g>
	<g id="New_Symbol_7">
	</g>
</g>
</svg>
