<?xml version="1.0" encoding="utf-8"?>
<!-- Generator: Adobe Illustrator 18.1.1, SVG Export Plug-In . SVG Version: 6.00 Build 0)  -->
<!DOCTYPE svg PUBLIC "-//W3C//DTD SVG 1.1//EN" "http://www.w3.org/Graphics/SVG/1.1/DTD/svg11.dtd">
<svg version="1.1" id="Layer_1" xmlns="http://www.w3.org/2000/svg" xmlns:xlink="http://www.w3.org/1999/xlink" x="0px" y="0px"
	 viewBox="300 246.6 595.2 595.2" enable-background="new 300 246.6 595.2 595.2" xml:space="preserve">
<g id="Solid">
</g>
<g id="Colours">
</g>
<g id="Vertical">
</g>
<g id="Horizontal">
</g>
<g id="Lines">
</g>
<g id="Graphics">
	<g>
		<g>
			<g>
				<path fill="#FFFFFF" d="M555.3,516.3c-18,0-30.9,13.6-30.9,32.2v0.7c0,18.7,13.6,33,30.9,33c18,0,30.9-13.6,30.9-32.2v-0.7
					C586.9,530.7,573.2,516.3,555.3,516.3z"/>
			</g>
			<g>
				<path fill="#FFFFFF" d="M731.8,517c-18,0-30.9,13.6-30.9,32.2v0.7c0,18.7,13.6,33,30.9,33c18,0,30.9-13.6,30.9-32.2V550
					C763.3,530.7,749.7,517,731.8,517z"/>
			</g>
		</g>
		<g>
			<path fill="#FFFFFF" d="M597.6,246.6C433.4,246.6,300,380,300,544.2s133.4,297.6,297.6,297.6s297.6-133.4,297.6-297.6
				S761.8,246.6,597.6,246.6z M732.5,441.7c9.3,0,17.2,7.9,17.2,17.2s-7.9,17.2-17.2,17.2c-9.2,0-17.2-7.9-17.2-17.2
				S723.1,441.7,732.5,441.7z M484.3,570.7c0,21.5-15.8,35.1-40.9,35.1c-14.4,0-29.4-5.1-41.6-12.9c-3.6-1.4-5.1-5.8-5.1-10
				c0-6.4,5.1-11.5,11.5-11.5c2.9,0,5.1,0.7,5.8,1.4c10,6.4,20,10,30.2,10c9.3,0,15.1-3.6,15.1-10v-0.7c0-6.4-9.3-9.3-20-12.9h-2.9
				c-16.5-5.1-34.4-11.5-34.4-33l0,0c0-20,16.5-33.7,39.5-33.7c11.5,0,23.7,2.9,34.4,8.6c4.3,2.2,6.4,5.8,6.4,10.7
				c0,6.4-5.1,11.5-11.5,11.5c-2.2,0-3.6-0.7-5.8-1.4c-9.3-5.1-17.2-7.1-24.4-7.1c-7.9,0-13.6,3.6-13.6,9.3v0.7
				c0,6.4,10,9.3,20.8,12.9l2.2,0.7C467.9,543.6,484.3,551.4,484.3,570.7L484.3,570.7z M614.1,549.3c0,32.2-25.8,56.7-58.8,56.7
				c-32.2,0-58.1-25.1-58.1-56.7v-0.7c0-32.2,25.8-57.3,58.1-57.3C588.3,491.9,614.1,517,614.1,549.3L614.1,549.3z M657.2,590.9
				c0,7.9-5.8,13.6-13.6,13.6c-7.8,0-13.6-5.8-13.6-13.6V477.6c0-7.9,5.8-13.6,13.6-13.6c7.8,0,13.6,5.8,13.6,13.6V590.9z
				 M790.6,549.3c0,32.2-25.8,56.7-58.8,56.7c-32.2,0-58.1-25.1-58.1-56.7v-0.7c0-32.2,25.8-57.3,58.1-57.3
				C764.7,492.7,790.6,517,790.6,549.3L790.6,549.3z"/>
		</g>
	</g>
</g>
<g id="Content">
	<g id="New_Symbol_7">
	</g>
</g>
</svg>
