<?xml version="1.0" encoding="utf-8"?>
<!-- Generator: Adobe Illustrator 18.1.1, SVG Export Plug-In . SVG Version: 6.00 Build 0)  -->
<!DOCTYPE svg PUBLIC "-//W3C//DTD SVG 1.1//EN" "http://www.w3.org/Graphics/SVG/1.1/DTD/svg11.dtd">
<svg version="1.1" id="Layer_1" xmlns="http://www.w3.org/2000/svg" xmlns:xlink="http://www.w3.org/1999/xlink" x="0px" y="0px"
	 viewBox="119.1 520.4 595.3 495.4" enable-background="new 119.1 520.4 595.3 495.4" xml:space="preserve">
<g id="Solid">
</g>
<g id="Colours">
</g>
<g id="Vertical">
</g>
<g id="Horizontal">
</g>
<g id="Lines">
</g>
<g id="Graphics">
</g>
<g id="Content">
	<g>
		<path fill="#FFFFFF" d="M652.4,643.8c0,7.4,2.5,12.4,2.5,19.8c0,111.6-74.4,297.6-250.5,339.8c-34.8,9.9-69.4,12.4-104.2,12.4
			c-57.1,0-129-9.9-181.1-54.6c69.4,9.9,131.5-14.9,181.1-52.1c-22.3,0-81.8-2.5-116.6-84.3c9.9,2.5,39.7,0,54.6-2.5
			C148.9,792.6,144,718.1,144,695.8c12.4,7.4,37.2,17.3,54.6,17.3c-71.9-61.9-59.5-119-39.7-168.6c96.8,109.2,195.9,129,253,129
			c-9.9-71.9,19.8-129,91.7-148.8c42.2-12.4,84.3,2.5,114.1,34.8c12.4,0,39.7-5,79.4-29.7c-5,17.3-22.3,54.6-54.6,69.4l22.3-2.5
			c12.4-2.5,32.2-9.9,49.6-17.3C706.9,594.4,684.6,624,652.4,643.8z"/>
	</g>
	<g id="New_Symbol_7">
	</g>
</g>
</svg>
