<?xml version="1.0" encoding="utf-8"?>
<!-- Generator: Adobe Illustrator 19.1.0, SVG Export Plug-In . SVG Version: 6.00 Build 0)  -->
<svg version="1.1" id="Layer_1" xmlns="http://www.w3.org/2000/svg" xmlns:xlink="http://www.w3.org/1999/xlink" x="0px" y="0px"
	 viewBox="0 0 792 792" style="enable-background:new 0 0 792 792;" xml:space="preserve">
<style type="text/css">
	.st0{fill:#0CF2E1;}
</style>
<g>
	<path class="st0" d="M265,109.7c36.5-15.6,74.7-23.4,114.7-23.4s78.3,7.8,114.7,23.4s67.9,36.6,94.4,63.1
		c26.5,26.5,47.5,57.9,63.1,94.4s23.4,74.7,23.4,114.7c0,45-9.6,87.5-28.7,127.4s-45.5,73.6-79.1,101.2
		c-33.6,27.5-71.5,46.8-113.9,57.7V443.3h63.2l10.7-73.9h-73.9v-64.9c0-22.3,10.8-33.5,32.3-33.5h47v-68.7
		c-14.6-3.3-32.3-4.9-53.1-4.9c-34.6,0-61.1,8.8-79.4,26.4s-27.4,41.5-27.4,71.7v73.9h-67.2v73.9h67.2v234.1
		c-39.4-0.8-77-9.1-112.6-25.1c-35.6-16-66.3-37.1-92.1-63.3c-25.8-26.3-46.3-57.4-61.5-93.5s-22.8-73.9-22.8-113.6
		c0-40,7.8-78.3,23.4-114.7s36.6-67.9,63.1-94.4S228.6,125.3,265,109.7z"/>
</g>
</svg>
