<?xml version="1.0" encoding="utf-8"?>
<!-- Generator: Adobe Illustrator 19.1.0, SVG Export Plug-In . SVG Version: 6.00 Build 0)  -->
<svg version="1.1" id="Layer_1" xmlns="http://www.w3.org/2000/svg" xmlns:xlink="http://www.w3.org/1999/xlink" x="0px" y="0px"
	 viewBox="0 0 792 792" style="enable-background:new 0 0 792 792;" xml:space="preserve">
<style type="text/css">
	.st0{fill:#0CF2E1;}
</style>
<g>
	<path class="st0" d="M264.7,109.7c36.5-15.6,74.8-23.4,115-23.4s78.6,7.8,115,23.4s67.9,36.6,94.2,62.9s47.3,57.8,62.9,94.2
		c15.6,36.5,23.4,74.8,23.4,115s-7.8,78.6-23.4,115c-15.6,36.5-36.6,67.9-62.9,94.2s-57.8,47.3-94.2,62.9s-74.8,23.4-115,23.4
		c-29.6,0-57.7-4.1-84.3-12.4c14.4-21.6,24.5-42.5,30.3-62.9l20.5-81.4c5.2,10.2,14.7,18.9,28.4,26.1c13.8,7.2,28.4,10.8,44,10.8
		c31.2,0,58.9-8.8,83.3-26.4c24.3-17.6,43.1-41.8,56.3-72.4c13.2-30.7,19.8-65.2,19.8-103.5c0-21.9-4.5-43.1-13.6-63.5
		c-9-20.4-21.6-38.5-37.5-54.3c-16-15.8-35.7-28.4-59.3-37.8c-23.6-9.4-49-14.1-76.4-14.1c-27.1,0-52.4,3.7-75.8,11.1
		c-23.4,7.4-43.3,17.3-59.6,29.6c-16.4,12.3-30.4,26.5-42,42.6c-11.6,16.1-20.2,32.7-25.7,49.9c-5.5,17.2-8.2,34.4-8.2,51.5
		c0,26.7,5.1,50.3,15.2,70.6c10.1,20.3,25.1,34.4,44.9,42.3c7.7,2.9,12.8,0.4,15.3-7.5c0.6-2.1,2.6-9.9,6.1-23.4
		c0.8-3.8,0.9-6.7,0.3-8.7c-0.6-1.9-2.3-4.5-5.2-7.8c-12.7-16-19.1-35.3-19.1-58c0-18.7,3.4-36.6,10.2-53.7
		c6.8-17.1,16.4-32.2,28.7-45.2c12.3-13,27.8-23.4,46.3-31.2c18.6-7.8,38.7-11.7,60.5-11.7c38.7,0,68.7,10.5,90.2,31.6
		c21.5,21.1,32.2,48.4,32.2,82.1c0,28.3-3.8,54.3-11.5,77.9s-18.8,42.6-33.2,57c-14.4,14.3-30.8,21.5-49.1,21.5
		c-15.6,0-28.1-5.6-37.7-16.7c-9.5-11.2-12.5-24.4-8.8-39.8c2.1-9,5.5-21.1,10.2-36.2c4.7-15.1,8.5-28.3,11.4-39.7
		c2.9-11.4,4.3-21,4.3-28.9c0-12.9-3.4-23.5-10.2-31.9c-6.8-8.4-16.6-12.6-29.3-12.6c-15.8,0-29.2,7.4-40.3,22.1
		c-11.1,14.7-16.6,32.9-16.6,54.4c0,8.5,0.8,16.6,2.3,24.4c1.5,7.8,3.1,13.4,4.6,16.9l2.6,5.5c-21.9,91.2-34.6,145-38.1,161.3
		c-5,20.2-6.6,42.8-4.9,67.8c-53.1-23.3-95.9-59.3-128.5-108.1S84.1,441.8,84.1,381.9c0-40.2,7.8-78.6,23.4-115s36.6-67.9,62.9-94.2
		S228.2,125.3,264.7,109.7z"/>
</g>
</svg>
