<?xml version="1.0" encoding="utf-8"?>
<!-- Generator: Adobe Illustrator 19.1.0, SVG Export Plug-In . SVG Version: 6.00 Build 0)  -->
<svg version="1.1" id="Layer_1" xmlns="http://www.w3.org/2000/svg" xmlns:xlink="http://www.w3.org/1999/xlink" x="0px" y="0px"
	 viewBox="0 0 792 792" style="enable-background:new 0 0 792 792;" xml:space="preserve">
<style type="text/css">
	.st0{fill:#0CF2E1;}
</style>
<g>
	<path class="st0" d="M265,109.9c36.7-15.7,75.3-23.5,115.7-23.5s79,7.8,115.7,23.5s68.3,36.8,94.8,63.3
		c26.5,26.5,47.6,58.1,63.3,94.8s23.5,75.3,23.5,115.7s-7.8,79-23.5,115.7c-15.7,36.7-36.8,68.3-63.3,94.8
		c-26.5,26.5-58.1,47.6-94.8,63.3c-36.7,15.7-75.3,23.5-115.7,23.5s-79-7.8-115.7-23.5c-36.7-15.7-68.3-36.8-94.8-63.3
		s-47.6-58.1-63.3-94.8c-15.7-36.7-23.5-75.3-23.5-115.7s7.8-79,23.5-115.7s36.8-68.3,63.3-94.8S228.3,125.5,265,109.9z
		 M561.6,318.4c15.1-10.6,29.1-25.2,42.1-43.6c-15.7,6.6-31.9,11-48.8,13.4c17.8-10.5,29.9-26.1,36.3-47
		c-16.3,9.7-33.9,16.6-52.9,20.6c-16.5-17.8-36.9-26.7-61.3-26.7c-23.4,0-43.3,8.2-59.5,24.7c-16.3,16.5-24.4,36.5-24.4,60.1
		c0,7.2,0.7,13.6,2,19.2c-34.7-1.7-67.1-10.5-97.4-26.1c-30.3-15.7-56.1-36.6-77.4-62.7c-7.4,13.7-11,28-11,42.7
		c0,14.5,3.3,27.9,10,40.2c6.7,12.3,15.7,22.3,27.2,30.1c-13.4,0-26-3.5-38-10.5v0.9c0,20.3,6.4,38.2,19.2,53.7
		c12.8,15.5,28.9,25.4,48.5,29.6c-6,1.7-13.4,2.6-22.1,2.6c-5.2,0-10.6-0.5-16-1.5c5.2,16.8,15.1,30.5,29.5,40.9
		c14.4,10.5,30.8,15.9,49.2,16.3c-33.1,25.8-68.1,38.6-104.8,38.6c-2.9,0-9.5-0.5-19.7-1.5c38.1,24.8,81.2,37.2,129.2,37.2
		c30,0,58.2-4.7,84.5-14.2c26.3-9.5,48.8-22.2,67.5-38.2c18.7-16,34.8-34.3,48.2-55.1c13.5-20.7,23.5-42.4,30.1-64.9
		c6.6-22.6,9.9-45.2,9.9-67.8V318.4z"/>
</g>
</svg>
